<svg id="Слой_1" data-name="Слой 1" xmlns="http://www.w3.org/2000/svg" viewBox="0 0 296.58 377.04"><defs><style>.cls-1{fill:#fff}</style></defs><title>outsource</title><path class="cls-1" d="M233 446.89h184v31h16V438a8.09 8.09 0 0 0-8.09-8.09H333v-29h-16v29h-91.91A8.09 8.09 0 0 0 217 438v38.91h16zM250.9 523a27.78 27.78 0 1 1-27.79-27.79A27.78 27.78 0 0 1 250.9 523zm-15.48 29.77H211.6a35.57 35.57 0 0 0-35.6 35.57v29l.07.45 2 .62a162.4 162.4 0 0 0 48.49 7.82c26.2 0 41.39-7.48 42.34-8l1.86-.94h.2v-29a35.57 35.57 0 0 0-35.54-35.52zm-6.72 55.76l-.06.21-5.13 7.5a.35.35 0 0 1-.3.16.36.36 0 0 1-.3-.17l-4.76-7.49-.06-.23 2.38-36.4a.36.36 0 0 1 .37-.34h4.94a.36.36 0 0 1 .36.34zm-2.38-37.71h-5.85l-5.09-10.53a1.82 1.82 0 0 1 1.82-1.82h12.23a1.83 1.83 0 0 1 1.83 1.82zM452.53 523a27.78 27.78 0 1 1-27.79-27.79A27.78 27.78 0 0 1 452.53 523zM437 552.77h-23.78a35.57 35.57 0 0 0-35.57 35.57v29l.07.45 2 .62a162.4 162.4 0 0 0 48.49 7.82c26.2 0 41.39-7.48 42.34-8l1.86-.94h.2v-29A35.57 35.57 0 0 0 437 552.77zm-6.72 55.76l-.06.21-5.13 7.5a.35.35 0 0 1-.3.16.36.36 0 0 1-.3-.17l-4.76-7.49-.06-.23 2.38-36.4a.36.36 0 0 1 .37-.34h4.94a.36.36 0 0 1 .36.34zm-2.38-37.71h-5.85L417 560.28a1.82 1.82 0 0 1 1.82-1.82H431a1.83 1.83 0 0 1 1.83 1.82zM352.58 277a27.78 27.78 0 1 1-27.79-27.79A27.78 27.78 0 0 1 352.58 277zm-15.49 29.73h-23.82a35.57 35.57 0 0 0-35.57 35.57v29l.07.45 2 .62a162.4 162.4 0 0 0 48.49 7.82c26.2 0 41.39-7.48 42.34-8l1.86-.94h.2v-29a35.57 35.57 0 0 0-35.57-35.52zm-6.72 55.76l-.06.21-5.13 7.5a.35.35 0 0 1-.3.16.36.36 0 0 1-.3-.17l-4.76-7.49-.06-.23 2.38-36.4a.36.36 0 0 1 .37-.34h4.94a.36.36 0 0 1 .36.34zM328 324.77h-5.85l-5.09-10.53a1.82 1.82 0 0 1 1.82-1.82h12.22a1.83 1.83 0 0 1 1.83 1.82z" transform="translate(-176.03 -249.19)"/></svg>