<svg id="Слой_1" data-name="Слой 1" xmlns="http://www.w3.org/2000/svg" viewBox="0 0 351 368.25"><defs><style>.cls-1{fill:#fff}</style></defs><title>outstaff</title><path class="cls-1" d="M297.52 424.77a9 9 0 1 0 9 9 8.95 8.95 0 0 0-9-9zm8.96 35.23a9 9 0 1 1-9-9 9 9 0 0 1 9 9zm0 26.29a9 9 0 1 1-9-9 9 9 0 0 1 9 9zm-8.96-87.84a9 9 0 1 0 6.4 2.64 9.09 9.09 0 0 0-6.4-2.64zM324.48 493a9 9 0 0 0-9.76 15.12 9 9 0 1 0 9.76-15.12zm26.16 21.85a9 9 0 1 1-9-9 9 9 0 0 1 9 9zm22.08 14.24a9 9 0 1 1-9-9 9 9 0 0 1 9 9zM270.56 493a9.11 9.11 0 0 0-2.72 12.48 9 9 0 0 0 15.16-9.75 8.88 8.88 0 0 0-12.4-2.72zm-8.24 21.85a9 9 0 1 1-9-9 9 9 0 0 1 9 9zm-22.08 14.24a9 9 0 1 1-9-9 9 9 0 0 1 9 9zm-38.39-22.53a29.26 29.26 0 1 1-29.26-29.26 29.26 29.26 0 0 1 29.26 29.26zm-16.31 31.33h-25.08A37.46 37.46 0 0 0 123 575.35v30.54l.07.47 2.1.66a171 171 0 0 0 51.07 8.24c27.6 0 43.59-7.88 44.59-8.38l2-1h.17v-30.53a37.46 37.46 0 0 0-37.46-37.46zm-7.07 58.72l-.06.22-5.4 7.9a.37.37 0 0 1-.32.17.38.38 0 0 1-.32-.18l-5-7.89-.06-.24 2.5-38.34a.38.38 0 0 1 .39-.36h5.21a.38.38 0 0 1 .38.36zM176 556.89h-6.2l-5.36-11.08a1.92 1.92 0 0 1 1.92-1.92h12.88a1.92 1.92 0 0 1 1.92 1.92zm277.08-49.3a29.26 29.26 0 1 1-29.26-29.26 29.26 29.26 0 0 1 29.26 29.26zm-16.54 31.3h-25.08A37.46 37.46 0 0 0 374 576.35v30.54l.07.47 2.1.66a171 171 0 0 0 51.07 8.24c27.6 0 43.59-7.88 44.59-8.38l2-1h.17v-30.53a37.46 37.46 0 0 0-37.46-37.46zm-6.85 58.72l-.06.22-5.4 7.9a.37.37 0 0 1-.32.17.38.38 0 0 1-.32-.18l-5-7.89-.06-.24 2.5-38.34a.38.38 0 0 1 .39-.36h5.21a.38.38 0 0 1 .38.36zm-2.51-39.72H421l-5.36-11.08a1.92 1.92 0 0 1 1.92-1.92h12.88a1.92 1.92 0 0 1 1.92 1.92zM326.85 277.27A29.26 29.26 0 1 1 297.59 248a29.26 29.26 0 0 1 29.26 29.26zm-16.31 31.62h-25.08A37.46 37.46 0 0 0 248 346.35v30.54l.07.47 2.1.66a171 171 0 0 0 51.07 8.24c27.6 0 43.59-7.88 44.59-8.38l2-1h.17v-30.53a37.46 37.46 0 0 0-37.46-37.46zm-7.07 58.72l-.06.22-5.4 7.9a.37.37 0 0 1-.32.17.38.38 0 0 1-.32-.18l-5-7.89-.06-.24 2.5-38.34a.38.38 0 0 1 .39-.36h5.21a.38.38 0 0 1 .38.36zM301 327.89h-6.2l-5.36-11.08a1.92 1.92 0 0 1 1.92-1.92h12.88a1.92 1.92 0 0 1 1.92 1.92z" transform="translate(-123 -248)"/></svg>