<svg id="Слой_1" data-name="Слой 1" xmlns="http://www.w3.org/2000/svg" viewBox="0 0 296.58 377.04">
  <defs>
    <style>
      .cls-1 {
        fill: #ffffff;
      }
    </style>
  </defs>
  <title>outsource</title>
  <path class="cls-1" d="M233,446.89H417v31h16V438a8.09,8.09,0,0,0-8.09-8.09H333v-29H317v29H225.09A8.09,8.09,0,0,0,217,438v38.91h16Zm-.22-.39" transform="translate(-176.03 -249.19)"/>
  <path class="cls-1" d="M250.9,523a27.78,27.78,0,1,1-27.79-27.79A27.78,27.78,0,0,1,250.9,523Zm0,0" transform="translate(-176.03 -249.19)"/>
  <path class="cls-1" d="M235.42,552.77H211.6A35.57,35.57,0,0,0,176,588.34v29l.07.45,2,.62a162.4,162.4,0,0,0,48.49,7.82c26.2,0,41.39-7.48,42.34-8l1.86-.94h.2v-29A35.57,35.57,0,0,0,235.42,552.77Zm-6.72,55.76-.06.21-5.13,7.5a.35.35,0,0,1-.3.16h0a.36.36,0,0,1-.3-.17l-4.76-7.49-.06-.23,2.38-36.4a.36.36,0,0,1,.37-.34h4.94a.36.36,0,0,1,.36.34Zm-2.38-37.71h-5.85l-5.09-10.53a1.82,1.82,0,0,1,1.82-1.82h12.23a1.83,1.83,0,0,1,1.83,1.82Z" transform="translate(-176.03 -249.19)"/>
  <path class="cls-1" d="M226.31,570.84" transform="translate(-176.03 -249.19)"/>
  <path class="cls-1" d="M452.53,523a27.78,27.78,0,1,1-27.79-27.79A27.78,27.78,0,0,1,452.53,523Zm0,0" transform="translate(-176.03 -249.19)"/>
  <path class="cls-1" d="M437,552.77H413.22a35.57,35.57,0,0,0-35.57,35.57v29l.07.45,2,.62a162.4,162.4,0,0,0,48.49,7.82c26.2,0,41.39-7.48,42.34-8l1.86-.94h.2v-29A35.57,35.57,0,0,0,437,552.77Zm-6.72,55.76-.06.21-5.13,7.5a.35.35,0,0,1-.3.16h0a.36.36,0,0,1-.3-.17l-4.76-7.49-.06-.23,2.38-36.4a.36.36,0,0,1,.37-.34h4.94a.36.36,0,0,1,.36.34Zm-2.38-37.71h-5.85L417,560.28a1.82,1.82,0,0,1,1.82-1.82H431a1.83,1.83,0,0,1,1.83,1.82Z" transform="translate(-176.03 -249.19)"/>
  <path class="cls-1" d="M427.93,570.84" transform="translate(-176.03 -249.19)"/>
  <path class="cls-1" d="M352.58,277a27.78,27.78,0,1,1-27.79-27.79A27.78,27.78,0,0,1,352.58,277Zm0,0" transform="translate(-176.03 -249.19)"/>
  <path class="cls-1" d="M337.09,306.73H313.27a35.57,35.57,0,0,0-35.57,35.57v29l.07.45,2,.62a162.4,162.4,0,0,0,48.49,7.82c26.2,0,41.39-7.48,42.34-8l1.86-.94h.2v-29A35.57,35.57,0,0,0,337.09,306.73Zm-6.72,55.76-.06.21-5.13,7.5a.35.35,0,0,1-.3.16h0a.36.36,0,0,1-.3-.17l-4.76-7.49-.06-.23,2.38-36.4a.36.36,0,0,1,.37-.34h4.94a.36.36,0,0,1,.36.34ZM328,324.77h-5.85l-5.09-10.53a1.82,1.82,0,0,1,1.82-1.82H331.1a1.83,1.83,0,0,1,1.83,1.82Z" transform="translate(-176.03 -249.19)"/>
  <path class="cls-1" d="M328,324.8" transform="translate(-176.03 -249.19)"/>
</svg>
