<svg id="Слой_1" data-name="Слой 1" xmlns="http://www.w3.org/2000/svg" viewBox="0 0 351 368.25">
  <defs>
    <style>
      .cls-1 {
        fill: #ffffff;
      }
    </style>
  </defs>
  <title>outstaff</title>
  <path class="cls-1" d="M297.52,424.77a9,9,0,1,0,9,9,8.95,8.95,0,0,0-9-9Zm0,0" transform="translate(-123 -248)"/>
  <path class="cls-1" d="M306.48,460a9,9,0,1,1-9-9,9,9,0,0,1,9,9Zm0,0" transform="translate(-123 -248)"/>
  <path class="cls-1" d="M306.48,486.29a9,9,0,1,1-9-9,9,9,0,0,1,9,9Zm0,0" transform="translate(-123 -248)"/>
  <path class="cls-1" d="M297.52,398.45a9,9,0,1,0,6.4,2.64,9.09,9.09,0,0,0-6.4-2.64Zm0,0" transform="translate(-123 -248)"/>
  <path class="cls-1" d="M324.48,493a9,9,0,0,0-9.76,15.12A9,9,0,1,0,324.48,493Zm0,0" transform="translate(-123 -248)"/>
  <path class="cls-1" d="M350.64,514.85a9,9,0,1,1-9-9,9,9,0,0,1,9,9Zm0,0" transform="translate(-123 -248)"/>
  <path class="cls-1" d="M372.72,529.09a9,9,0,1,1-9-9,9,9,0,0,1,9,9Zm0,0" transform="translate(-123 -248)"/>
  <path class="cls-1" d="M270.56,493a9.11,9.11,0,0,0-2.72,12.48A9,9,0,0,0,283,495.73a8.88,8.88,0,0,0-12.4-2.72Zm0,0" transform="translate(-123 -248)"/>
  <path class="cls-1" d="M262.32,514.85a9,9,0,1,1-9-9,9,9,0,0,1,9,9Zm0,0" transform="translate(-123 -248)"/>
  <path class="cls-1" d="M240.24,529.09a9,9,0,1,1-9-9,9,9,0,0,1,9,9Zm0,0" transform="translate(-123 -248)"/>
  <path class="cls-1" d="M201.85,506.56a29.26,29.26,0,1,1-29.26-29.26,29.26,29.26,0,0,1,29.26,29.26Zm0,0" transform="translate(-123 -248)"/>
  <path class="cls-1" d="M185.54,537.89H160.46A37.46,37.46,0,0,0,123,575.35v30.54l.07.47,2.1.66a171,171,0,0,0,51.07,8.24c27.6,0,43.59-7.88,44.59-8.38l2-1H223V575.35A37.46,37.46,0,0,0,185.54,537.89Zm-7.07,58.72-.06.22-5.4,7.9a.37.37,0,0,1-.32.17h0a.38.38,0,0,1-.32-.18l-5-7.89-.06-.24,2.5-38.34a.38.38,0,0,1,.39-.36h5.21a.38.38,0,0,1,.38.36ZM176,556.89H169.8l-5.36-11.08a1.92,1.92,0,0,1,1.92-1.92h12.88a1.92,1.92,0,0,1,1.92,1.92Z" transform="translate(-123 -248)"/>
  <path class="cls-1" d="M175.95,556.92" transform="translate(-123 -248)"/>
  <path class="cls-1" d="M453.08,507.59a29.26,29.26,0,1,1-29.26-29.26,29.26,29.26,0,0,1,29.26,29.26Zm0,0" transform="translate(-123 -248)"/>
  <path class="cls-1" d="M436.54,538.89H411.46A37.46,37.46,0,0,0,374,576.35v30.54l.07.47,2.1.66a171,171,0,0,0,51.07,8.24c27.6,0,43.59-7.88,44.59-8.38l2-1H474V576.35A37.46,37.46,0,0,0,436.54,538.89Zm-6.85,58.72-.06.22-5.4,7.9a.37.37,0,0,1-.32.17h0a.38.38,0,0,1-.32-.18l-5-7.89-.06-.24,2.5-38.34a.38.38,0,0,1,.39-.36h5.21a.38.38,0,0,1,.38.36Zm-2.51-39.72H421l-5.36-11.08a1.92,1.92,0,0,1,1.92-1.92h12.88a1.92,1.92,0,0,1,1.92,1.92Z" transform="translate(-123 -248)"/>
  <path class="cls-1" d="M427.18,558" transform="translate(-123 -248)"/>
  <path class="cls-1" d="M326.85,277.27A29.26,29.26,0,1,1,297.59,248a29.26,29.26,0,0,1,29.26,29.26Zm0,0" transform="translate(-123 -248)"/>
  <path class="cls-1" d="M310.54,308.89H285.46A37.46,37.46,0,0,0,248,346.35v30.54l.07.47,2.1.66a171,171,0,0,0,51.07,8.24c27.6,0,43.59-7.88,44.59-8.38l2-1H348V346.35A37.46,37.46,0,0,0,310.54,308.89Zm-7.07,58.72-.06.22-5.4,7.9a.37.37,0,0,1-.32.17h0a.38.38,0,0,1-.32-.18l-5-7.89-.06-.24,2.5-38.34a.38.38,0,0,1,.39-.36h5.21a.38.38,0,0,1,.38.36ZM301,327.89H294.8l-5.36-11.08a1.92,1.92,0,0,1,1.92-1.92h12.88a1.92,1.92,0,0,1,1.92,1.92Z" transform="translate(-123 -248)"/>
  <path class="cls-1" d="M300.95,327.63" transform="translate(-123 -248)"/>
</svg>
